<?xml version="1.0" encoding="UTF-8" standalone="no"?>
<!-- Generator: Gravit.io -->

<svg
   xmlns:dc="http://purl.org/dc/elements/1.1/"
   xmlns:cc="http://creativecommons.org/ns#"
   xmlns:rdf="http://www.w3.org/1999/02/22-rdf-syntax-ns#"
   xmlns:svg="http://www.w3.org/2000/svg"
   xmlns="http://www.w3.org/2000/svg"
   xmlns:xlink="http://www.w3.org/1999/xlink"
   xmlns:sodipodi="http://sodipodi.sourceforge.net/DTD/sodipodi-0.dtd"
   xmlns:inkscape="http://www.inkscape.org/namespaces/inkscape"
   style="isolation:isolate"
   viewBox="0 0 632.00007 1080.0001"
   width="632"
   height="1080"
   id="svg2"
   version="1.1"
   inkscape:version="0.91 r13725"
   sodipodi:docname="remind_title.svg"
   inkscape:export-filename="/home/eric/data/WORK/PROJECT/TOOL/REMIND/LOGO/remind_title.png"
   inkscape:export-xdpi="90"
   inkscape:export-ydpi="90">
  <metadata
     id="metadata21">
    <rdf:RDF>
      <cc:Work
         rdf:about="">
        <dc:format>image/svg+xml</dc:format>
        <dc:type
           rdf:resource="http://purl.org/dc/dcmitype/StillImage" />
        <dc:title></dc:title>
      </cc:Work>
    </rdf:RDF>
  </metadata>
  <sodipodi:namedview
     pagecolor="#ffffff"
     bordercolor="#666666"
     borderopacity="1"
     objecttolerance="10"
     gridtolerance="10"
     guidetolerance="10"
     inkscape:pageopacity="0"
     inkscape:pageshadow="2"
     inkscape:window-width="1920"
     inkscape:window-height="1056"
     id="namedview19"
     showgrid="false"
     fit-margin-top="30"
     fit-margin-left="40"
     fit-margin-right="40"
     fit-margin-bottom="40"
     inkscape:zoom="0.70710678"
     inkscape:cx="276.72941"
     inkscape:cy="493.38268"
     inkscape:window-x="0"
     inkscape:window-y="0"
     inkscape:window-maximized="1"
     inkscape:current-layer="svg2" />
  <defs
     id="defs4">
    <linearGradient
       inkscape:collect="always"
       id="linearGradient4771">
      <stop
         style="stop-color:#ffe3ce;stop-opacity:1;"
         offset="0"
         id="stop4773" />
      <stop
         style="stop-color:#ffffff;stop-opacity:1"
         offset="1"
         id="stop4775" />
    </linearGradient>
    <clipPath
       id="_clipPath_ckJPxNb6JWKwfUS70TcPZV403bXeIsg1">
      <rect
         width="2623.739"
         height="1053.873"
         id="rect7"
         x="0"
         y="0" />
    </clipPath>
    <clipPath
       id="_clipPath_ckJPxNb6JWKwfUS70TcPZV403bXeIsg1-3">
      <rect
         y="0"
         x="0"
         id="rect7-5"
         height="1053.873"
         width="2623.739" />
    </clipPath>
    <linearGradient
       inkscape:collect="always"
       xlink:href="#linearGradient4771"
       id="linearGradient4777"
       x1="515.22284"
       y1="500.34003"
       x2="515.22284"
       y2="-0.15022621"
       gradientUnits="userSpaceOnUse"
       gradientTransform="matrix(0.6171875,0,0,2.16,0,1.2688327e-5)" />
  </defs>
  <rect
     style="fill:url(#linearGradient4777);fill-opacity:1"
     id="rect4159"
     width="632.00006"
     height="1080.0001"
     x="0"
     y="-6.6757352e-06" />
  <g
     id="g4614"
     transform="matrix(1.3709535,0,0,1.3697917,-25.240917,209.35304)">
    <g
       transform="matrix(5.4597489,0,0,5.3708666,62.237831,336.15646)"
       id="g11">
      <text
         transform="translate(0,21.377)"
         style="font-style:normal;font-weight:600;font-size:20px;font-family:'Open Sans';letter-spacing:-2;fill:#0d9aff;fill-opacity:1;stroke:none"
         id="text13">
        <tspan
           id="tspan4153"
           style="font-style:normal;font-variant:normal;font-weight:normal;font-stretch:normal;font-family:'URW Gothic L';-inkscape-font-specification:'URW Gothic L';letter-spacing:-1.06123137px;fill:#0d9aff;fill-opacity:1"><tspan
   id="tspan4159"
   style="fill:#ff8000;fill-opacity:1">Re</tspan>
Mind</tspan>
      </text>
    </g>
    <g
       transform="matrix(0.38311339,0,0,0.38311339,74.776735,28.488352)"
       id="g4152"
       style="isolation:isolate">
      <path
         style="opacity:1;isolation:isolate;fill:#0d9aff;fill-opacity:1;fill-rule:evenodd;stroke:none;stroke-width:1px;stroke-linecap:butt;stroke-linejoin:miter;stroke-opacity:1"
         d="m 454.51564,67.371037 a 389.51524,389.51524 0 0 0 -0.1074,0.006 l 0,127.884773 a 261.62813,261.62813 0 0 1 0.1074,-0.004 261.62813,261.62813 0 0 1 261.627,261.62893 261.62813,261.62813 0 0 1 -96.0098,202.31446 l 80.9492,98.92188 A 389.51524,389.51524 0 0 0 844.03124,456.88669 389.51524,389.51524 0 0 0 454.51564,67.371037 Z M 97.007814,303.37301 a 389.51524,389.51524 0 0 0 -32.00781,153.51368 389.51524,389.51524 0 0 0 0.004,0.0898 l 127.888666,0.0801 a 261.62813,261.62813 0 0 1 -0.006,-0.16992 261.62813,261.62813 0 0 1 21.29102,-103.20704 L 97.007814,303.37301 Z M 198.60938,509.957 73.251954,535.832 A 389.51524,389.51524 0 0 0 206,756.3906 l 81.51173,-98.22851 A 261.62813,261.62813 0 0 1 198.60938,509.957 Z m 133.23246,177.86134 -59.94535,112.80079 a 389.51524,389.51524 0 0 0 182.61915,45.78125 389.51524,389.51524 0 0 0 180.2461,-44.54492 l -59.1621,-113.18751 a 261.62813,261.62813 0 0 1 -121.084,29.8457 261.62813,261.62813 0 0 1 -122.6738,-30.69531 z"
         id="path3369"
         inkscape:connector-curvature="0" />
      <path
         style="isolation:isolate;fill:#0d9aff;fill-opacity:1;fill-rule:evenodd;stroke:none;stroke-width:1px;stroke-linecap:butt;stroke-linejoin:miter;stroke-opacity:1"
         d="M 455.44624,260.36877 319.47524,132.68438 455.44624,4.9999393 Z"
         id="path4187"
         inkscape:connector-curvature="0" />
      <g
         id="g4343"
         transform="matrix(3.499067,0,0,3.499067,-823.82067,232.61533)"
         style="isolation:isolate;fill:#ff8000;fill-opacity:1">
        <g
           id="g4345"
           style="fill:#ff8000;fill-opacity:1">
          <path
             inkscape:connector-curvature="0"
             d="m 403.137,34.344 c -3.07,-3.178 -8.134,-3.266 -11.312,-0.196 -0.067,0.064 -0.132,0.13 -0.196,0.196 L 349.285,76.688 338.941,66.344 c -3.178,-3.07 -8.242,-2.982 -11.312,0.196 -2.995,3.1 -2.995,8.016 0,11.116 l 16,16 c 3.124,3.123 8.188,3.123 11.312,0 l 48,-48 c 3.178,-3.07 3.266,-8.134 0.196,-11.312 z"
             id="path4347"
             style="fill:#ff8000;fill-opacity:1" />
        </g>
      </g>
    </g>
  </g>
</svg>
