<?xml version="1.0" encoding="UTF-8" standalone="no"?>
<!-- Generator: Gravit.io -->

<svg
   xmlns:dc="http://purl.org/dc/elements/1.1/"
   xmlns:cc="http://creativecommons.org/ns#"
   xmlns:rdf="http://www.w3.org/1999/02/22-rdf-syntax-ns#"
   xmlns:svg="http://www.w3.org/2000/svg"
   xmlns="http://www.w3.org/2000/svg"
   xmlns:xlink="http://www.w3.org/1999/xlink"
   xmlns:sodipodi="http://sodipodi.sourceforge.net/DTD/sodipodi-0.dtd"
   xmlns:inkscape="http://www.inkscape.org/namespaces/inkscape"
   style="isolation:isolate"
   viewBox="0 0 1024.0001 500.00003"
   width="1024"
   height="500"
   id="svg2"
   version="1.1"
   inkscape:version="0.91 r13725"
   sodipodi:docname="remind_feature.svg"
   inkscape:export-filename="/home/eric/data/WORK/PROJECT/TOOL/REMIND/LOGO/remind_feature.png"
   inkscape:export-xdpi="90"
   inkscape:export-ydpi="90">
  <metadata
     id="metadata21">
    <rdf:RDF>
      <cc:Work
         rdf:about="">
        <dc:format>image/svg+xml</dc:format>
        <dc:type
           rdf:resource="http://purl.org/dc/dcmitype/StillImage" />
        <dc:title />
      </cc:Work>
    </rdf:RDF>
  </metadata>
  <sodipodi:namedview
     pagecolor="#ffffff"
     bordercolor="#666666"
     borderopacity="1"
     objecttolerance="10"
     gridtolerance="10"
     guidetolerance="10"
     inkscape:pageopacity="0"
     inkscape:pageshadow="2"
     inkscape:window-width="1920"
     inkscape:window-height="1056"
     id="namedview19"
     showgrid="false"
     fit-margin-top="30"
     fit-margin-left="40"
     fit-margin-right="40"
     fit-margin-bottom="40"
     inkscape:zoom="0.26198033"
     inkscape:cx="-560.54207"
     inkscape:cy="-761.15794"
     inkscape:window-x="0"
     inkscape:window-y="0"
     inkscape:window-maximized="1"
     inkscape:current-layer="svg2" />
  <defs
     id="defs4">
    <linearGradient
       inkscape:collect="always"
       id="linearGradient4771">
      <stop
         style="stop-color:#ffe3ce;stop-opacity:1;"
         offset="0"
         id="stop4773" />
      <stop
         style="stop-color:#ffffff;stop-opacity:1"
         offset="1"
         id="stop4775" />
    </linearGradient>
    <clipPath
       id="_clipPath_ckJPxNb6JWKwfUS70TcPZV403bXeIsg1">
      <rect
         width="2623.739"
         height="1053.873"
         id="rect7"
         x="0"
         y="0" />
    </clipPath>
    <clipPath
       id="_clipPath_ckJPxNb6JWKwfUS70TcPZV403bXeIsg1-3">
      <rect
         y="0"
         x="0"
         id="rect7-5"
         height="1053.873"
         width="2623.739" />
    </clipPath>
    <linearGradient
       inkscape:collect="always"
       xlink:href="#linearGradient4771"
       id="linearGradient4777"
       x1="515.22284"
       y1="500.34003"
       x2="515.22284"
       y2="-0.15022621"
       gradientUnits="userSpaceOnUse" />
  </defs>
  <rect
     style="fill:url(#linearGradient4777);fill-opacity:1"
     id="rect4159"
     width="1024.0001"
     height="500.00006"
     x="0"
     y="-1.5258796e-05" />
  <g
     id="g4614"
     transform="matrix(1.0657844,0,0,1.0657844,542.99804,-7.5824985)">
    <g
       transform="matrix(5.4597489,0,0,5.3708666,62.237831,336.15646)"
       id="g11">
      <text
         transform="translate(0,21.377)"
         style="font-style:normal;font-weight:600;font-size:20px;font-family:'Open Sans';letter-spacing:-2;fill:#0d9aff;fill-opacity:1;stroke:none"
         id="text13">
        <tspan
           id="tspan4153"
           style="font-style:normal;font-variant:normal;font-weight:normal;font-stretch:normal;font-family:'URW Gothic L';-inkscape-font-specification:'URW Gothic L';letter-spacing:-1.06123137px;fill:#0d9aff;fill-opacity:1"><tspan
   id="tspan4159"
   style="fill:#ff8000;fill-opacity:1">Re</tspan>

Mind</tspan>
      </text>
    </g>
    <g
       transform="matrix(0.38311339,0,0,0.38311339,74.776735,28.488352)"
       id="g4152"
       style="isolation:isolate">
      <path
         style="opacity:1;isolation:isolate;fill:#0d9aff;fill-opacity:1;fill-rule:evenodd;stroke:none;stroke-width:1px;stroke-linecap:butt;stroke-linejoin:miter;stroke-opacity:1"
         d="m 454.51564,67.371037 a 389.51524,389.51524 0 0 0 -0.1074,0.006 l 0,127.884773 a 261.62813,261.62813 0 0 1 0.1074,-0.004 261.62813,261.62813 0 0 1 261.627,261.62893 261.62813,261.62813 0 0 1 -96.0098,202.31446 l 80.9492,98.92188 A 389.51524,389.51524 0 0 0 844.03124,456.88669 389.51524,389.51524 0 0 0 454.51564,67.371037 Z M 97.007814,303.37301 a 389.51524,389.51524 0 0 0 -32.00781,153.51368 389.51524,389.51524 0 0 0 0.004,0.0898 l 127.888666,0.0801 a 261.62813,261.62813 0 0 1 -0.006,-0.16992 261.62813,261.62813 0 0 1 21.29102,-103.20704 L 97.007814,303.37301 Z M 198.60938,509.957 73.251954,535.832 A 389.51524,389.51524 0 0 0 206,756.3906 l 81.51173,-98.22851 A 261.62813,261.62813 0 0 1 198.60938,509.957 Z m 133.23246,177.86134 -59.94535,112.80079 a 389.51524,389.51524 0 0 0 182.61915,45.78125 389.51524,389.51524 0 0 0 180.2461,-44.54492 l -59.1621,-113.18751 a 261.62813,261.62813 0 0 1 -121.084,29.8457 261.62813,261.62813 0 0 1 -122.6738,-30.69531 z"
         id="path3369"
         inkscape:connector-curvature="0" />
      <path
         style="isolation:isolate;fill:#0d9aff;fill-opacity:1;fill-rule:evenodd;stroke:none;stroke-width:1px;stroke-linecap:butt;stroke-linejoin:miter;stroke-opacity:1"
         d="M 455.44624,260.36877 319.47524,132.68438 455.44624,4.9999393 Z"
         id="path4187"
         inkscape:connector-curvature="0" />
      <g
         id="g4343"
         transform="matrix(3.499067,0,0,3.499067,-823.82067,232.61533)"
         style="isolation:isolate;fill:#ff8000;fill-opacity:1">
        <g
           id="g4345"
           style="fill:#ff8000;fill-opacity:1">
          <path
             inkscape:connector-curvature="0"
             d="m 403.137,34.344 c -3.07,-3.178 -8.134,-3.266 -11.312,-0.196 -0.067,0.064 -0.132,0.13 -0.196,0.196 L 349.285,76.688 338.941,66.344 c -3.178,-3.07 -8.242,-2.982 -11.312,0.196 -2.995,3.1 -2.995,8.016 0,11.116 l 16,16 c 3.124,3.123 8.188,3.123 11.312,0 l 48,-48 c 3.178,-3.07 3.266,-8.134 0.196,-11.312 z"
             id="path4347"
             style="fill:#ff8000;fill-opacity:1" />
        </g>
      </g>
    </g>
  </g>
  <g
     transform="matrix(1.0107545,0,0,1.0107545,6.7491493,-43.839232)"
     id="g3362">
    <polygon
       points="137.87,511.61 230.97,512.73 235.46,408.41 204.05,410.66 200.13,484.13 "
       id="polygon3364" />
    <path
       d="m 282.01,407.85 c 0,1.684 1.68,103.2 1.68,103.2 0,0 80.765,2.247 80.765,0.564 0,-1.682 -54.405,-31.408 -54.405,-31.408 l 0.563,-75.155 -28.603,2.804 z"
       id="path3366"
       inkscape:connector-curvature="0" />
    <polygon
       points="167.6,252.49 166.47,423.56 350.99,425.24 346.51,237.91 "
       style="fill:#0b72b5"
       id="polygon3368" />
    <path
       d="m 193.4,277.17 c 0,0 28.043,71.229 28.043,68.985 0,-2.245 34.77,-62.815 34.77,-62.815 L 193.4,277.17 Z"
       style="fill:#009ee0"
       id="path3370"
       inkscape:connector-curvature="0" />
    <polygon
       points="263.5,283.9 286.5,346.72 330.24,265.95 "
       style="fill:#009ee0"
       id="polygon3372" />
    <path
       d="m 376.23,183.51 c 0,63.182 -55.993,114.41 -125.07,114.41 -69.069,0 -125.06,-51.229 -125.06,-114.41 0,-63.19 55.997,-114.42 125.06,-114.42 69.081,0 125.07,51.227 125.07,114.42 z"
       style="fill:#f6af6f"
       id="path3374"
       inkscape:connector-curvature="0" />
    <polygon
       points="78.983,204.82 59.35,231.74 176.57,320.92 186.67,290.63 "
       style="fill:#05609a"
       id="polygon3376" />
    <polygon
       points="335.85,300.17 456.43,248.01 444.1,216.6 340.34,266.52 "
       style="fill:#05609a"
       id="polygon3378" />
    <g
       id="g3380">
      <path
         d="m 254.52,406.19 c -0.212,-33.018 -0.48,-88.746 0.084,-90.995 l 2.728,0.683 2.769,0.466 c -0.371,3.126 -0.177,55.42 0.042,89.81 l -5.623,0.036 z"
         style="fill:#05609a"
         id="path3382"
         inkscape:connector-curvature="0" />
    </g>
    <path
       d="m 440.73,219.97 c 0,0 19.629,-45.988 28.604,-11.216 0,0 29.72,-0.56 10.651,16.824 0,0 27.479,26.357 -28.044,20.749 l -11.21,-26.36 z"
       style="fill:#f6af6f"
       id="path3384"
       inkscape:connector-curvature="0" />
    <polygon
       points="440.73,141.45 476.62,281.66 577.57,260.35 547.85,121.82 "
       style="fill:#ffde91"
       id="polygon3386" />
    <g
       id="g3388">
      <polygon
         points="532.23,143.73 533.18,149.26 461.39,161.6 461.39,161.6 460.44,156.06 "
         id="polygon3390" />
    </g>
    <g
       id="g3392">
      <polygon
         points="530.47,158.32 531.57,163.83 469.88,176.17 469.88,176.17 468.78,170.66 "
         id="polygon3394" />
    </g>
    <g
       id="g3396">
      <polygon
         points="537.69,171.24 538.94,176.72 475,191.3 475,191.3 473.75,185.82 "
         id="polygon3398" />
    </g>
    <g
       id="g3400">
      <path
         d="m 478.56,206.39 -1.711,-5.354 c 1.719,-0.574 49.205,-10.091 63.718,-12.993 l 1.104,5.512 c -24.279,4.855 -61.118,12.279 -63.111,12.835 z"
         id="path3402"
         inkscape:connector-curvature="0" />
    </g>
    <g
       id="g3404">
      <polygon
         points="544.95,203.78 546.27,209.24 490.74,222.7 490.74,222.7 489.42,217.24 "
         id="polygon3406" />
    </g>
    <g
       id="g3408">
      <polygon
         points="549.47,220.03 550.72,225.51 494.07,238.41 494.07,238.41 492.82,232.93 "
         id="polygon3410" />
    </g>
    <g
       id="g3412">
      <polygon
         points="555.69,239.09 556.83,244.59 491.77,258.05 491.77,258.05 490.63,252.55 "
         id="polygon3414" />
    </g>
    <path
       d="m 146.28,186.6 c 0,10.992 -9.667,19.909 -21.591,19.909 -11.923,0 -21.591,-8.917 -21.591,-19.909 0,-10.996 9.668,-19.911 21.591,-19.911 11.924,0 21.591,8.915 21.591,19.911 z"
       style="fill:#f6af6f"
       id="path3416"
       inkscape:connector-curvature="0" />
    <path
       d="m 393.62,187.16 c 0,10.375 -9.165,18.789 -20.47,18.789 -11.306,0 -20.475,-8.414 -20.475,-18.789 0,-10.373 9.169,-18.787 20.475,-18.787 11.305,0 20.47,8.415 20.47,18.787 z"
       style="fill:#f6af6f"
       id="path3418"
       inkscape:connector-curvature="0" />
    <ellipse
       cy="185.48"
       ry="15.982"
       rx="17.105"
       cx="200.96001"
       id="ellipse3420" />
    <path
       d="m 307.81,187.44 c 0,8.982 -7.156,16.264 -15.985,16.264 -8.832,0 -15.985,-7.282 -15.985,-16.264 0,-8.984 7.153,-16.266 15.985,-16.266 8.828,0.001 15.985,7.282 15.985,16.266 z"
       id="path3422"
       inkscape:connector-curvature="0" />
    <path
       d="m 224.24,202.02 c 0,0 14.022,31.406 35.333,1.12"
       style="fill:#de9e65"
       id="path3424"
       inkscape:connector-curvature="0" />
    <path
       d="m 162.54,216.04 c 0,0 102.08,45.987 166.02,-5.046 0,0 -74.034,122.83 -166.02,5.046 z"
       style="fill:#ffffff"
       id="path3426"
       inkscape:connector-curvature="0" />
    <path
       d="m 164.79,158.27 3.927,8.973 c 0,0 39.259,-20.749 57.765,-10.653 0,0 -12.897,-17.385 -61.692,1.68 z"
       id="path3428"
       inkscape:connector-curvature="0" />
    <path
       d="m 267.42,157.15 c 0,0 52.72,-4.482 61.692,6.172 l 5.61,-14.585 c 0.001,0 -52.159,-6.171 -67.302,8.413 z"
       id="path3430"
       inkscape:connector-curvature="0" />
    <polygon
       points="174.32,168.93 174.89,174.54 225.36,175.66 "
       id="polygon3432" />
    <polygon
       points="262.38,176.78 318.46,168.93 317.34,177.9 "
       id="polygon3434" />
    <path
       d="m 59.35,231.74 c 0,0 -53.282,-5.044 -35.334,-21.31 0,0 -15.706,-22.433 5.608,-20.191 0,0 7.291,-21.874 21.873,-8.975 L 78.982,204.82 59.35,231.74 Z"
       style="fill:#f6af6f"
       id="path3436"
       inkscape:connector-curvature="0" />
    <path
       d="m 209.66,188.28 c 0,3.252 -3.011,5.889 -6.731,5.889 -3.713,0 -6.729,-2.637 -6.729,-5.889 0,-3.255 3.016,-5.889 6.729,-5.889 3.72,0 6.731,2.634 6.731,5.889 z"
       style="fill:#ffffff"
       id="path3438"
       inkscape:connector-curvature="0" />
    <ellipse
       cy="189.67999"
       ry="6.1669998"
       rx="6.7290001"
       cx="293.23001"
       style="fill:#ffffff"
       id="ellipse3440" />
    <path
       d="m 131.14,149.3 c -0.72,1.889 66.177,-40.381 66.177,-40.381 l -12.336,20.191 29.722,-19.633 -13.461,21.315 51.599,-24.681 -13.461,16.826 36.458,-15.143 -15.706,18.508 39.821,-15.702 -24.68,21.874 35.334,-13.461 -11.778,14.021 31.411,-8.972 38.141,17.946 c 0,0 -16.829,-68.425 -121.71,-72.912 -0.001,0 -83.563,-3.925 -115.53,80.204 z"
       style="fill:#915e36"
       id="path3442"
       inkscape:connector-curvature="0" />
  </g>
</svg>
